<svg width="18" height="18" viewBox="0 0 18 18" fill="none" xmlns="http://www.w3.org/2000/svg">
<path d="M12.5005 11.0005H11.7105L11.4305 10.7305C12.0554 10.0044 12.5122 9.14924 12.768 8.22608C13.0239 7.30292 13.0725 6.33462 12.9105 5.39046C12.4405 2.61046 10.1205 0.390463 7.32046 0.0504631C6.33608 -0.0740712 5.33625 0.0282347 4.39749 0.349552C3.45872 0.670869 2.60591 1.20268 1.90429 1.90429C1.20268 2.60591 0.670869 3.45872 0.349552 4.39749C0.0282347 5.33625 -0.0740712 6.33608 0.0504631 7.32046C0.390463 10.1205 2.61046 12.4405 5.39046 12.9105C6.33462 13.0725 7.30292 13.0239 8.22608 12.768C9.14924 12.5122 10.0044 12.0554 10.7305 11.4305L11.0005 11.7105V12.5005L15.2505 16.7505C15.6605 17.1605 16.3305 17.1605 16.7405 16.7505C17.1505 16.3405 17.1505 15.6705 16.7405 15.2605L12.5005 11.0005ZM6.50046 11.0005C4.01046 11.0005 2.00046 8.99046 2.00046 6.50046C2.00046 4.01046 4.01046 2.00046 6.50046 2.00046C8.99046 2.00046 11.0005 4.01046 11.0005 6.50046C11.0005 8.99046 8.99046 11.0005 6.50046 11.0005Z" fill="#787878"/>
</svg>
