<svg width="18" height="18" viewBox="0 0 18 18" fill="none" xmlns="http://www.w3.org/2000/svg">
<path d="M2 18L16 18C17.11 18 18 17.11 18 16L18 12L16 12L16 16L2 16L2 2L16 2L16 6L18 6L18 2C18 1.46957 17.7893 0.96086 17.4142 0.585787C17.0391 0.210714 16.5304 -1.28474e-07 16 -1.74846e-07L2 -1.39876e-06C1.46957 -1.44514e-06 0.960861 0.210713 0.585788 0.585785C0.210716 0.960858 1.44514e-06 1.46957 1.39876e-06 2L1.74846e-07 16C1.28474e-07 16.5304 0.210714 17.0391 0.585787 17.4142C0.96086 17.7893 1.46957 18 2 18ZM10.92 5.42L9.5 4L4.5 9L9.5 14L10.92 12.59L8.33 10L18 10L18 8L8.33 8L10.92 5.42Z" fill="#F8F8F8" fill-opacity="0.6"/>
</svg>
