<svg width="26" height="26" viewBox="0 0 26 26" fill="none" xmlns="http://www.w3.org/2000/svg">
<path d="M22.75 20.5837V21.667H3.25V20.5837L5.41667 18.417V11.917C5.41667 8.55866 7.61583 5.60116 10.8333 4.64783V4.33366C10.8333 3.75902 11.0616 3.20792 11.4679 2.80159C11.8743 2.39527 12.4254 2.16699 13 2.16699C13.5746 2.16699 14.1257 2.39527 14.5321 2.80159C14.9384 3.20792 15.1667 3.75902 15.1667 4.33366V4.64783C18.3842 5.60116 20.5833 8.55866 20.5833 11.917V18.417L22.75 20.5837ZM15.1667 22.7503C15.1667 23.325 14.9384 23.8761 14.5321 24.2824C14.1257 24.6887 13.5746 24.917 13 24.917C12.4254 24.917 11.8743 24.6887 11.4679 24.2824C11.0616 23.8761 10.8333 23.325 10.8333 22.7503" fill="#F8F8F8"/>
</svg>
