<svg width="18" height="18" viewBox="0 0 18 18" fill="none" xmlns="http://www.w3.org/2000/svg">
<path d="M13.168 9.83317H4.83464V8.1665H13.168V9.83317ZM9.0013 0.666504C7.90695 0.666504 6.82332 0.882052 5.81227 1.30084C4.80123 1.71963 3.88257 2.33346 3.10875 3.10728C1.54594 4.67008 0.667969 6.7897 0.667969 8.99984C0.667969 11.21 1.54594 13.3296 3.10875 14.8924C3.88257 15.6662 4.80123 16.28 5.81227 16.6988C6.82332 17.1176 7.90695 17.3332 9.0013 17.3332C11.2114 17.3332 13.3311 16.4552 14.8939 14.8924C16.4567 13.3296 17.3346 11.21 17.3346 8.99984C17.3346 7.90549 17.1191 6.82186 16.7003 5.81081C16.2815 4.79976 15.6677 3.8811 14.8939 3.10728C14.12 2.33346 13.2014 1.71963 12.1903 1.30084C11.1793 0.882052 10.0957 0.666504 9.0013 0.666504Z" fill="#F13939"/>
</svg>
